<?xml version="1.0" encoding="UTF-8"?>
<svg id="Livello_2" data-name="Livello 2" xmlns="http://www.w3.org/2000/svg" viewBox="0 0 889.36 889.37">
  <defs>
    <style>
      .cls-1 {
        opacity: .22;
      }

      .cls-1, .cls-2 {
        fill: #fff;
      }
    </style>
  </defs>
  <g id="Livello_1-2" data-name="Livello 1">
    <path class="cls-1" d="M868.8,581.77c83.93,182.53-104.5,370.97-287.03,287.05l-46.68-21.46c-57.38-26.39-123.44-26.39-180.82,0l-46.68,21.46C125.07,952.75-63.38,764.3,20.57,581.77l21.44-46.66c26.39-57.4,26.39-123.44,0-180.84l-21.44-46.66C-63.38,125.06,125.07-63.37,307.59,20.56l46.68,21.46c57.38,26.39,123.44,26.39,180.82,0l46.68-21.46c182.53-83.93,370.95,104.5,287.03,287.05l-21.46,46.66c-26.37,57.4-26.37,123.44,0,180.84l21.46,46.66Z"/>
    <g>
      <g>
        <path class="cls-2" d="M141.7,462.39h39.75l17.84,69.05h.29l17.84-69.05h39.75v103.58h-25.39v-78.63h-.29l-21.76,78.63h-20.6l-21.76-78.63h-.29v78.63h-25.39v-103.58Z"/>
        <path class="cls-2" d="M304.04,462.39h27.42l38.73,103.58h-28.14l-6.38-18.57h-36.12l-6.53,18.57h-27.71l38.73-103.58ZM305.78,527.38h23.5l-11.46-36.27h-.29l-11.75,36.27Z"/>
        <path class="cls-2" d="M473.62,565.97h-17.41l-1.6-11.31c-6.96,10.01-19.58,13.49-28.87,13.49-31.48,0-51.64-23.94-51.64-53.96s20.16-53.96,51.64-53.96c21.47,0,44.54,11.32,46.86,37.43h-26.98c-1.02-8.85-9.43-14.22-20.45-14.22-17.41,0-24.08,15.23-24.08,30.75s6.67,30.75,24.08,30.75c13.35,0,22.19-6.24,23.79-15.67h-18.86v-20.02h43.52v56.72Z"/>
        <path class="cls-2" d="M586.49,565.97h-17.41l-1.6-11.31c-6.96,10.01-19.58,13.49-28.87,13.49-31.48,0-51.64-23.94-51.64-53.96s20.16-53.96,51.64-53.96c21.47,0,44.54,11.32,46.86,37.43h-26.98c-1.02-8.85-9.43-14.22-20.45-14.22-17.41,0-24.08,15.23-24.08,30.75s6.67,30.75,24.08,30.75c13.35,0,22.19-6.24,23.79-15.67h-18.86v-20.02h43.52v56.72Z"/>
        <path class="cls-2" d="M603.76,462.39h26.98v103.58h-26.98v-103.58Z"/>
        <path class="cls-2" d="M696.6,460.22c32.49,0,51.06,23.94,51.06,53.96s-18.57,53.96-51.06,53.96-51.06-23.94-51.06-53.96,18.57-53.96,51.06-53.96ZM696.6,544.94c17.41,0,24.08-15.23,24.08-30.75s-6.67-30.75-24.08-30.75-24.08,15.23-24.08,30.75,6.67,30.75,24.08,30.75Z"/>
      </g>
      <g>
        <path class="cls-2" d="M139.31,437.23c.51-45.6,20.49-88.13,55.85-118.87,30.74-26.64,65.07-44.58,93.25-62.51,27.16-17.93,46.63-35.35,46.63-59.43,0-28.18-17.93-44.58-46.11-44.58-46.11,0-59.43,33.3-59.43,72.24h-81.47c-5.64-88.64,51.75-148.59,140.39-148.59,70.71,0,133.73,36.89,133.73,113.23,0,69.17-49.19,93.76-101.45,126.56-27.67,16.4-40.99,25.62-64.56,48.16h169.59v73.78H139.31Z"/>
        <path class="cls-2" d="M550.75,344.5c2.05,11.79,8.71,19.47,17.42,25.11,8.71,5.64,19.98,8.2,30.74,8.2,47.14,0,63.53-43.55,66.1-90.69h-1.02c-16.4,27.67-48.68,38.43-79.93,38.43-71.22,0-119.38-51.75-119.38-121.43,0-75.83,63.02-128.61,136.8-128.61,104.01,0,148.59,78.91,148.59,174.72,0,102.99-43.04,191.63-156.27,191.63-65.58,0-112.21-31.25-124.51-97.35h81.47ZM662.95,203.08c0-32.28-22.54-56.87-59.95-56.87-32.79,0-56.87,26.13-56.87,55.85,0,33.3,21.01,59.43,57.39,59.43s59.43-26.13,59.43-58.41Z"/>
      </g>
      <g>
        <path class="cls-2" d="M139.31,762.65c.25-22.2,9.98-42.91,27.19-57.88,14.97-12.97,31.68-21.7,45.41-30.44,13.22-8.73,22.7-17.21,22.7-28.94,0-13.72-8.73-21.71-22.45-21.71-22.45,0-28.94,16.22-28.94,35.18h-39.67c-2.74-43.16,25.2-72.35,68.36-72.35,34.43,0,65.12,17.96,65.12,55.14,0,33.68-23.95,45.66-49.4,61.62-13.47,7.98-19.96,12.47-31.43,23.45h82.58v35.93h-139.46Z"/>
        <path class="cls-2" d="M297.73,675.58c0-46.65,18.96-89.07,68.11-89.07s70.85,42.41,70.85,89.07-19.96,89.32-70.85,89.32-68.11-42.91-68.11-89.32ZM395.78,675.58c0-22.7-.75-54.64-28.69-54.64s-28.44,31.93-28.44,54.64,1.5,54.89,28.44,54.89,28.69-32.18,28.69-54.89Z"/>
        <path class="cls-2" d="M453.67,762.65c.25-22.2,9.98-42.91,27.19-57.88,14.97-12.97,31.69-21.7,45.41-30.44,13.22-8.73,22.7-17.21,22.7-28.94,0-13.72-8.73-21.71-22.45-21.71-22.45,0-28.94,16.22-28.94,35.18h-39.67c-2.74-43.16,25.2-72.35,68.36-72.35,34.43,0,65.11,17.96,65.11,55.14,0,33.68-23.95,45.66-49.4,61.62-13.47,7.98-19.96,12.47-31.43,23.45h82.58v35.93h-139.46Z"/>
        <path class="cls-2" d="M650.76,708.76c0,13.72,15.22,21.7,27.94,21.7,16.72,0,28.94-10.98,28.94-27.94s-9.73-28.69-27.44-28.69c-11.98,0-20.96,2.49-27.69,13.22h-38.42l16.96-98.3h109.77v35.93h-77.09l-6.49,31.68h.5c8.73-8.73,20.71-12.47,33.93-12.47,35.68,0,58.38,20.46,58.38,56.63,0,42.91-30.94,64.37-71.35,64.37-38.17,0-67.61-14.22-70.35-56.13h42.41Z"/>
      </g>
    </g>
  </g>
</svg>